<?xml version="1.0" standalone="no"?>
<!DOCTYPE svg PUBLIC "-//W3C//DTD SVG 20010904//EN"
 "http://www.w3.org/TR/2001/REC-SVG-20010904/DTD/svg10.dtd">
<svg version="1.0" xmlns="http://www.w3.org/2000/svg"
 width="806.000000pt" height="806.000000pt" viewBox="0 0 806.000000 806.000000"
 preserveAspectRatio="xMidYMid meet">

<g transform="translate(0.000000,806.000000) scale(0.100000,-0.100000)"
fill="#000000" stroke="none">
<path d="M4259 7893 c-13 -16 -12 -17 4 -4 9 7 17 15 17 17 0 8 -8 3 -21 -13z"/>
<path d="M4261 7866 c-9 -10 -22 -11 -64 -4 -61 12 -133 5 -201 -18 -33 -11
-44 -19 -35 -25 7 -4 18 -4 25 1 6 6 14 7 17 3 4 -3 7 -2 7 3 0 5 35 10 78 12
174 7 316 -76 389 -228 23 -46 27 -69 28 -140 0 -72 -4 -94 -27 -144 -32 -68
-35 -83 -10 -43 10 15 22 24 27 20 4 -5 5 -3 2 3 -4 7 0 31 9 55 8 25 15 77
15 119 1 131 -56 240 -166 318 -30 22 -51 42 -48 46 4 4 0 4 -9 1 -25 -10 -42
3 -27 21 6 8 9 14 6 14 -2 0 -10 -6 -16 -14z"/>
<path d="M3696 7629 c-20 -82 -23 -128 -14 -184 14 -80 49 -153 103 -213 25
-28 45 -55 45 -61 0 -7 -28 -11 -77 -11 -106 0 -291 -18 -315 -31 -15 -8 -17
-13 -8 -24 24 -29 272 -70 480 -80 69 -4 130 -8 137 -10 7 -2 15 1 19 7 5 7 2
8 -6 3 -9 -5 -10 -2 -6 13 6 17 0 22 -31 32 -62 20 -110 48 -117 67 -5 16 -4
15 9 -1 8 -11 15 -15 15 -9 0 6 -22 27 -49 46 -59 43 -92 84 -127 161 -32 70
-42 172 -25 242 8 32 9 50 2 57 -7 7 -9 4 -6 -12 2 -12 0 -19 -6 -16 -5 4 -7
10 -5 14 3 4 1 13 -4 21 -7 11 -10 8 -14 -11z m339 -584 c0 -5 -6 -10 -13 -11
-6 -1 -10 2 -7 6 3 5 -5 11 -17 13 -16 4 -13 5 7 3 17 0 30 -6 30 -11z"/>
<path d="M4510 7291 c0 -7 -4 -9 -10 -6 -6 4 -7 -1 -3 -11 6 -15 7 -15 15 1 6
9 7 19 4 22 -3 4 -6 1 -6 -6z"/>
<path d="M3949 7149 c14 -5 31 -15 38 -21 11 -8 12 -7 7 7 -5 13 -4 16 4 11 7
-4 12 -2 12 3 0 6 -19 11 -42 10 -38 0 -40 -1 -19 -10z"/>
<path d="M4016 7141 c-4 -7 -5 -15 -2 -18 9 -9 19 4 14 18 -4 11 -6 11 -12 0z"/>
<path d="M4045 7131 c2 -18 21 -26 30 -12 4 7 -1 8 -12 4 -15 -6 -16 -4 -6 8
10 13 10 16 -1 16 -8 0 -13 -7 -11 -16z"/>
<path d="M3430 7025 c0 -30 0 -58 -1 -62 -1 -9 63 -29 129 -42 31 -6 40 -5 34
3 -10 13 -10 27 1 43 4 6 3 15 -3 18 -8 5 -7 12 2 23 10 12 10 14 1 8 -7 -4
-13 -3 -13 2 0 5 -21 15 -47 22 -27 7 -60 19 -75 27 l-28 14 0 -56z m145 -25
c-3 -5 -1 -11 5 -15 6 -4 7 -12 3 -18 -4 -7 -8 -15 -8 -19 0 -11 -20 -10 -20
1 0 5 -3 13 -7 17 -4 4 -4 12 0 18 4 6 7 14 8 19 1 4 2 10 3 13 0 3 6 2 11 -1
6 -4 8 -10 5 -15z"/>
<path d="M3555 6981 c-3 -5 -1 -12 5 -16 5 -3 10 1 10 9 0 18 -6 21 -15 7z"/>
<path d="M4500 6966 c0 -7 40 -14 44 -7 3 4 -6 8 -20 9 -13 1 -24 0 -24 -2z"/>
<path d="M4496 6938 c3 -5 10 -6 15 -3 13 9 11 12 -6 12 -8 0 -12 -4 -9 -9z"/>
<path d="M4520 6925 c-7 -8 -17 -12 -24 -8 -7 4 -6 1 1 -9 7 -8 12 -17 10 -19
-1 -2 -1 -4 0 -4 1 0 1 3 0 6 -1 4 7 16 17 28 11 12 17 21 14 21 -3 0 -11 -7
-18 -15z"/>
<path d="M3420 6902 c0 -14 9 -35 20 -47 11 -12 22 -31 25 -43 4 -22 -16 -56
-34 -58 -6 -1 -15 -2 -21 -3 -5 0 -10 -19 -10 -41 0 -38 -6 -98 -35 -368 -14
-130 -18 -142 -79 -185 -17 -12 -50 -27 -75 -34 l-46 -13 50 4 50 5 -50 -15
c-27 -9 -75 -22 -105 -31 l-55 -15 48 -44 c27 -24 46 -44 43 -44 -4 0 -36 13
-71 29 l-65 30 -26 -40 c-14 -23 -34 -55 -45 -72 -23 -39 -24 -31 -3 40 9 30
14 57 11 59 -3 3 -44 -11 -93 -30 -48 -20 -89 -35 -90 -33 -2 2 28 20 66 41
39 20 70 39 70 41 0 16 -338 -127 -477 -201 -112 -60 -111 -58 -90 -137 12
-48 13 -48 30 -29 16 17 17 26 8 58 -8 29 -8 40 2 46 21 14 37 9 37 -12 0 -30
16 -24 51 20 18 22 41 40 51 40 27 0 22 -12 -24 -65 -30 -34 -36 -46 -23 -42
66 20 77 20 73 2 -2 -13 -22 -23 -65 -35 -60 -16 -93 -34 -93 -50 0 -4 44 3
98 15 81 18 98 19 100 8 2 -8 1 -17 -1 -20 -3 -3 -59 -16 -124 -30 -80 -17
-124 -31 -138 -45 l-20 -20 30 6 c105 19 107 19 103 1 -2 -14 -23 -23 -87 -37
-46 -9 -85 -19 -86 -20 -1 -2 -43 -49 -94 -106 -50 -56 -91 -105 -91 -108 0
-4 17 9 38 27 86 78 344 241 358 226 3 -2 -29 -34 -71 -71 -42 -36 -73 -66
-70 -66 3 0 29 12 57 26 64 32 279 116 285 111 6 -6 -161 -115 -251 -163 -45
-24 -79 -44 -75 -44 3 0 45 9 95 20 124 27 139 25 75 -10 -72 -40 -166 -77
-281 -111 l-95 -28 100 5 c176 9 175 9 235 69 30 30 60 55 67 55 29 0 22 -25
-18 -66 l-43 -44 29 0 c24 1 50 20 125 90 52 49 97 90 100 90 3 0 12 -5 20
-10 12 -8 1 -24 -60 -85 -64 -65 -71 -75 -51 -75 14 0 46 19 77 45 33 29 58
43 68 39 23 -9 20 -22 -11 -49 l-28 -24 78 -1 c75 0 78 -1 75 -22 -3 -21 -9
-23 -85 -26 -46 -2 -83 -6 -83 -9 0 -4 12 -20 27 -36 l28 -28 -24 -19 -25 -18
-44 49 c-33 37 -51 49 -73 49 -16 0 -29 -3 -29 -7 1 -5 27 -42 60 -83 32 -41
56 -78 54 -82 -3 -4 -14 -12 -24 -18 -17 -9 -28 2 -91 85 -62 82 -75 95 -101
95 -32 0 -31 -2 9 -56 13 -17 23 -35 23 -40 0 -9 -40 -38 -44 -32 -2 2 -22 32
-46 67 l-42 63 -46 -6 c-24 -3 -89 -6 -143 -6 -59 0 -99 -4 -99 -10 0 -5 12
-10 26 -10 73 0 290 -77 349 -123 19 -16 19 -16 -15 -16 -19 0 -69 6 -110 13
-41 8 -76 13 -77 12 -1 -1 26 -21 60 -43 74 -49 217 -170 217 -183 0 -16 -216
73 -292 120 -27 17 -50 30 -53 30 -3 0 10 -21 29 -47 31 -45 76 -125 76 -138
0 -10 -96 55 -147 100 -29 25 -76 77 -104 116 -29 38 -53 68 -55 66 -2 -2 17
-66 43 -144 l47 -140 80 -12 c43 -6 81 -13 83 -15 2 -2 -1 -15 -7 -30 -7 -19
-15 -26 -28 -22 -9 2 -37 8 -61 11 l-44 7 7 -28 c4 -16 9 -31 11 -33 2 -2 57
-12 122 -23 154 -25 144 -21 132 -58 -8 -21 -16 -29 -28 -26 -37 11 -194 37
-197 33 -3 -2 0 -15 5 -29 7 -20 20 -26 75 -37 36 -7 66 -17 66 -22 0 -4 -5
-19 -11 -32 -10 -23 -14 -24 -51 -15 -23 5 -42 7 -44 5 -2 -2 7 -37 21 -77 14
-40 25 -75 25 -76 0 -1 -13 -9 -30 -17 l-29 -15 -26 81 c-15 45 -28 84 -30 85
-2 2 -15 -19 -29 -47 -17 -32 -33 -51 -44 -51 -40 1 -39 15 5 94 34 62 42 86
38 108 -4 15 -10 28 -13 28 -4 0 -36 -50 -72 -111 -36 -61 -70 -115 -76 -120
-7 -5 -18 -3 -29 5 -18 13 -14 22 68 154 88 142 94 156 78 181 -7 10 -20 -3
-51 -53 -36 -57 -45 -66 -64 -60 -11 4 -22 8 -24 9 -2 1 24 44 57 95 l59 92
-16 51 c-8 29 -25 85 -37 124 -12 40 -24 76 -28 79 -4 4 -7 -35 -7 -87 0 -52
-4 -120 -9 -151 -13 -77 -52 -220 -59 -214 -3 3 -8 56 -11 118 l-6 113 -19
-59 c-40 -132 -154 -393 -156 -355 -1 32 40 238 64 320 13 46 23 85 21 87 -2
2 -13 -13 -23 -35 -26 -49 -122 -186 -128 -181 -15 15 94 266 165 382 23 37
41 70 39 71 -2 2 -54 -56 -116 -128 l-113 -132 2 -79 c2 -70 0 -81 -17 -87
-32 -13 -34 -11 -34 48 l0 56 -25 -23 c-24 -23 -25 -28 -25 -156 0 -111 -2
-133 -16 -138 -43 -16 -45 -11 -42 94 2 55 0 100 -4 100 -15 0 -33 -48 -43
-114 -8 -58 -14 -70 -32 -77 -22 -8 -23 -6 -23 34 l-1 42 -59 -65 c-52 -58
-60 -63 -74 -50 -14 13 -9 22 44 80 33 36 59 68 60 73 0 4 -18 4 -40 1 -38 -6
-40 -5 -40 18 0 21 7 26 51 36 28 7 58 12 68 12 9 0 30 14 46 30 34 35 31 35
-85 15 -103 -18 -100 -18 -100 -2 1 29 23 39 141 58 103 18 128 25 149 46 l25
25 -50 -6 c-27 -4 -58 -9 -67 -12 -20 -6 -23 8 -8 35 7 14 27 20 77 26 36 4
74 10 84 13 14 6 118 119 213 232 20 23 20 24 1 10 -11 -8 -36 -28 -55 -44
-55 -46 -208 -145 -285 -183 l-70 -34 40 38 c22 21 65 60 95 86 l55 48 -98
-46 c-55 -25 -103 -45 -108 -43 -24 8 43 74 117 115 79 44 77 47 -15 26 -19
-5 -22 -3 -16 8 15 25 -3 5 -47 -56 -156 -213 -304 -499 -394 -760 -39 -112
-37 -112 35 0 28 44 51 78 51 75 0 -3 -18 -52 -40 -109 l-39 -104 102 7 102 6
-94 -34 c-51 -19 -95 -36 -96 -38 -2 -2 29 -41 68 -87 78 -92 77 -93 -30 -14
-40 29 -74 53 -76 53 -2 0 -10 -42 -17 -92 -19 -133 -28 -149 -30 -48 -2 136
-13 137 -39 4 -70 -365 -73 -762 -7 -1104 l12 -65 7 70 c4 39 7 89 7 113 0 81
18 33 25 -68 4 -55 9 -100 11 -100 2 0 34 20 71 44 38 24 70 42 72 41 2 -2
-22 -32 -53 -67 -31 -35 -56 -65 -56 -68 0 -3 36 -25 79 -50 44 -24 78 -46 77
-48 -2 -1 -38 7 -80 18 -43 12 -80 19 -83 16 -3 -3 6 -49 21 -102 15 -52 26
-97 24 -100 -3 -2 -21 32 -41 76 -21 44 -39 80 -41 80 -7 0 45 -161 90 -277
93 -241 218 -471 369 -678 74 -103 272 -334 316 -370 18 -15 17 -11 -6 15 -16
19 -41 45 -55 58 l-24 23 34 27 c64 51 67 54 45 47 -11 -3 -41 -11 -68 -17
-42 -10 -49 -10 -61 8 -14 18 -11 20 47 37 92 27 97 31 42 34 -124 7 -155 14
-180 41 -34 36 -31 44 11 36 52 -10 36 10 -22 26 -34 10 -51 22 -69 49 -12 20
-19 37 -15 39 3 1 35 -6 71 -17 l64 -20 -29 22 c-83 63 -127 99 -123 103 13
13 194 -73 289 -137 31 -21 60 -39 64 -39 7 0 -133 134 -194 185 -31 26 -36
27 -83 18 -47 -10 -51 -9 -59 11 -7 18 -3 22 32 31 l39 10 -22 21 c-20 21 -24
21 -78 8 -74 -18 -88 -17 -95 3 -8 21 7 31 62 39 47 7 50 11 24 30 -11 8 -32
11 -58 7 -35 -5 -42 -2 -46 15 -5 16 0 22 21 27 l26 7 -43 39 c-23 22 -42 49
-42 59 0 29 9 25 58 -23 l44 -42 -7 43 c-5 34 -4 42 9 42 14 0 20 -15 42 -105
7 -30 31 -61 39 -53 3 3 -4 47 -16 98 -15 73 -17 95 -7 101 6 4 15 6 19 3 4
-2 17 -59 29 -126 16 -87 28 -129 42 -143 22 -22 22 -27 2 75 -5 25 -2 30 14
30 15 0 21 -11 31 -57 6 -31 11 -66 11 -77 0 -20 72 -96 184 -196 l39 -35 -45
60 c-65 87 -130 189 -172 272 -55 111 -47 110 43 -3 34 -41 61 -73 61 -71 0 3
-12 31 -26 63 -32 72 -104 270 -104 287 0 18 75 -103 141 -228 32 -60 59 -107
59 -103 0 4 -6 35 -14 70 -8 35 -17 86 -20 113 l-6 50 20 -35 c31 -56 81 -187
111 -295 l28 -100 0 86 c2 148 -5 171 -65 238 -30 32 -54 64 -54 69 0 28 26
20 66 -19 l44 -43 0 31 c0 25 -17 50 -90 129 -81 89 -88 100 -74 114 14 13 23
8 83 -58 36 -39 70 -72 74 -72 18 0 -10 59 -49 106 -39 46 -42 52 -28 66 15
14 19 13 45 -16 l28 -31 1 78 c0 75 1 78 23 75 20 -3 22 -9 25 -85 2 -46 6
-83 9 -83 4 0 20 12 35 27 27 26 28 26 43 7 8 -10 15 -22 15 -26 0 -4 -22 -26
-50 -50 -37 -32 -50 -50 -50 -70 0 -16 4 -28 8 -28 5 0 42 25 82 55 40 30 77
55 80 55 4 0 15 -9 24 -19 17 -18 15 -21 -56 -73 -40 -30 -85 -62 -101 -72
-19 -13 -27 -27 -27 -47 0 -16 3 -29 6 -29 3 0 25 13 48 30 42 28 44 28 60 11
9 -10 16 -21 16 -24 0 -4 -30 -26 -66 -49 l-67 -43 7 -89 c3 -49 7 -117 7
-150 1 -34 4 -50 6 -36 17 105 88 292 138 362 15 22 15 22 15 -7 0 -28 -10
-97 -26 -175 -6 -33 -4 -31 35 26 48 71 191 238 198 231 10 -11 -89 -234 -143
-319 -28 -44 -25 -47 19 -14 47 35 147 89 147 79 0 -11 -47 -80 -93 -135 -20
-25 -73 -72 -116 -104 -44 -32 -79 -59 -78 -60 1 -2 61 15 132 37 72 21 135
39 142 39 12 0 18 22 31 115 7 51 22 64 51 46 12 -8 13 -20 4 -68 -6 -32 -9
-60 -7 -62 3 -3 17 0 32 5 25 9 28 17 52 136 14 70 29 130 32 133 3 3 17 0 32
-6 19 -9 24 -17 20 -33 -2 -12 -13 -60 -22 -108 -17 -83 -17 -88 -1 -88 28 0
44 24 59 86 7 33 15 60 16 62 1 2 16 -4 33 -12 27 -14 29 -19 21 -42 -6 -14
-10 -34 -10 -44 0 -18 1 -18 53 -1 101 35 105 35 122 1 12 -24 13 -31 3 -34
-30 -10 -86 -26 -127 -36 l-44 -12 54 -30 c68 -39 64 -34 51 -63 l-12 -25 -81
48 c-60 36 -89 47 -110 44 -16 -2 -29 -7 -29 -11 0 -3 54 -41 120 -84 66 -43
120 -82 120 -86 0 -4 -6 -15 -12 -24 -12 -16 -27 -8 -157 79 -114 76 -148 94
-167 90 -32 -8 -27 -16 46 -62 60 -39 67 -48 51 -73 -11 -16 -29 -7 -122 60
l-65 48 -129 -34 c-70 -19 -129 -36 -131 -38 -3 -2 42 -7 99 -10 99 -6 331
-57 350 -76 11 -11 -143 -24 -190 -15 -56 10 -41 2 92 -51 66 -26 163 -70 215
-96 91 -47 93 -49 50 -43 -67 8 -286 63 -344 85 -61 23 -57 19 83 -80 50 -35
89 -66 87 -69 -6 -5 -135 43 -201 76 -44 21 -163 92 -235 139 -25 16 16 -26
156 -159 l72 -68 81 0 c69 0 82 -3 91 -19 18 -35 12 -41 -47 -41 l-58 0 27
-26 c24 -25 32 -27 156 -32 125 -5 130 -6 141 -29 6 -13 11 -27 11 -30 0 -3
-48 -2 -107 2 l-108 7 23 -25 c19 -20 36 -25 89 -30 64 -5 83 -15 83 -46 0 -9
-11 -12 -41 -9 l-41 4 67 -65 c60 -58 65 -66 51 -80 -14 -14 -21 -11 -63 30
-27 24 -60 55 -75 68 l-26 23 9 -39 c12 -54 12 -55 -18 -51 -26 3 -29 7 -41
78 -9 48 -21 83 -34 97 -12 13 -23 21 -26 19 -2 -2 2 -48 9 -101 8 -71 9 -99
1 -104 -25 -15 311 -167 513 -231 55 -17 120 -38 144 -46 25 -8 46 -12 48 -10
3 2 -34 28 -81 57 -48 29 -85 54 -83 55 2 2 50 -14 107 -36 57 -22 105 -38
107 -36 2 2 -1 43 -7 92 -14 128 -13 130 27 19 20 -55 37 -102 40 -104 2 -3
20 11 41 30 20 20 59 53 86 75 l49 39 -63 -88 c-34 -48 -61 -90 -59 -92 3 -2
49 -11 104 -20 54 -8 101 -18 104 -20 2 -3 -25 -5 -60 -6 -121 -1 -110 -15 26
-33 380 -51 690 -44 1056 24 92 18 357 85 366 93 1 2 -39 2 -90 0 l-92 -3 102
28 c57 16 105 31 108 33 3 3 -25 41 -63 84 -37 44 -60 75 -52 70 8 -5 49 -33
90 -62 l75 -53 23 87 c35 135 40 138 34 20 -3 -59 -2 -107 2 -107 3 0 47 21
97 46 50 25 93 44 95 42 2 -2 -26 -26 -61 -53 -63 -47 -78 -70 -32 -47 12 6
74 35 137 65 144 67 368 192 482 269 49 32 98 63 110 68 30 12 76 49 62 50 -6
0 -17 -7 -24 -15 -7 -9 -18 -14 -24 -12 -6 2 -28 -7 -48 -19 -24 -15 -39 -20
-44 -13 -3 6 -13 8 -21 5 -8 -3 1 15 19 39 63 87 62 90 -7 30 -115 -99 -176
-148 -180 -143 -2 2 46 57 107 122 108 114 110 117 57 84 -94 -61 -106 -61
-44 -2 51 48 146 123 236 187 13 9 -23 -6 -81 -33 -100 -47 -107 -52 -148
-112 -23 -35 -46 -64 -51 -66 -21 -7 -19 17 4 51 31 44 31 49 3 36 -13 -6 -52
-53 -86 -105 -44 -65 -70 -94 -83 -94 -17 0 -12 12 32 76 28 42 48 78 45 81
-6 6 -48 -36 -86 -86 -16 -22 -32 -32 -43 -30 -18 4 -18 6 3 32 12 15 19 27
17 27 -2 0 -30 -11 -61 -25 -68 -30 -66 -30 -66 -7 0 13 21 28 73 52 l72 33
-34 14 -34 14 21 22 22 21 44 -22 c40 -19 48 -20 72 -8 l26 14 -66 38 c-36 21
-66 41 -66 45 0 3 9 14 19 23 18 16 22 15 91 -29 54 -34 79 -45 96 -41 32 8
30 18 -6 39 -35 21 -37 28 -12 50 16 14 20 13 61 -17 l44 -33 111 50 c130 58
149 72 75 51 -69 -19 -205 -29 -255 -19 l-39 7 69 24 c39 13 80 24 93 24 46 0
22 16 -43 28 -36 7 -97 25 -136 40 l-70 27 58 7 c57 8 189 3 248 -9 27 -5 25
-1 -30 50 -32 30 -56 58 -53 62 9 8 96 -14 144 -38 22 -11 61 -34 86 -52 l47
-33 -45 96 c-25 53 -47 99 -48 101 -2 1 -34 -5 -70 -14 -37 -9 -69 -14 -72
-11 -3 2 -2 14 2 25 4 14 20 24 48 31 70 18 69 18 57 40 -13 25 -15 25 -137 0
-122 -25 -115 -25 -111 8 3 26 7 28 103 47 55 10 101 20 103 21 2 1 -2 12 -8
24 -11 20 -17 21 -75 15 l-64 -7 8 28 c6 23 15 31 47 38 21 5 40 11 42 12 2 1
-12 31 -30 68 l-32 65 24 26 c13 14 26 23 28 20 3 -2 19 -37 37 -76 l33 -71
23 66 c20 55 28 66 46 66 13 0 23 -3 23 -7 0 -5 -14 -44 -30 -88 -31 -83 -36
-111 -21 -133 5 -9 27 32 66 127 51 125 61 141 81 141 27 0 33 18 -55 -190
-48 -112 -60 -150 -53 -165 8 -17 15 -9 45 58 28 59 41 77 56 77 23 0 22 -2
-19 -90 -52 -109 -53 -114 -34 -151 9 -19 27 -58 39 -88 l22 -54 6 144 c7 161
29 284 42 237 4 -15 10 -60 14 -100 l6 -73 23 95 c13 52 43 154 67 225 43 125
44 128 39 70 -6 -62 -39 -280 -50 -325 -3 -14 22 29 55 95 41 81 59 109 55 85
-8 -48 -85 -272 -118 -345 -38 -83 -21 -61 69 88 l78 127 -7 65 c-6 59 -5 65
16 80 23 15 23 15 28 -32 l5 -48 18 32 c13 25 17 56 17 146 0 98 3 116 18 130
10 10 22 17 26 17 4 0 5 -43 1 -95 -4 -52 -5 -95 -1 -95 14 0 34 60 40 120 5
50 12 69 27 78 18 11 19 9 19 -25 l0 -38 46 77 c25 43 50 78 54 78 24 0 16
-27 -30 -99 -27 -45 -50 -83 -50 -86 0 -2 17 5 37 17 33 20 36 20 30 4 -4 -10
-7 -21 -7 -26 0 -5 -26 -25 -59 -44 -51 -31 -100 -81 -89 -91 2 -2 37 17 78
41 41 23 78 43 81 43 3 1 4 -9 2 -22 -3 -16 -31 -37 -105 -77 -55 -30 -109
-67 -120 -83 -24 -34 -18 -34 38 -1 43 25 44 25 44 5 0 -15 -18 -30 -69 -58
-65 -35 -74 -45 -125 -128 -103 -166 -102 -164 -50 -105 66 75 254 267 254
259 0 -4 -24 -38 -53 -75 -78 -102 -78 -105 4 -34 41 36 100 85 131 110 64 51
96 111 175 325 39 106 114 364 112 390 0 6 -16 -19 -35 -55 -19 -36 -32 -56
-30 -45 17 67 46 191 46 196 0 4 -44 -4 -97 -16 -54 -13 -99 -22 -101 -21 -1
2 38 23 88 47 49 24 90 47 90 50 0 4 -34 39 -76 78 -42 39 -74 71 -71 71 3 0
44 -23 92 -50 48 -28 88 -50 91 -50 2 0 4 51 4 113 1 116 12 128 25 27 14
-101 21 -98 35 16 20 166 16 470 -8 639 -21 140 -69 365 -79 365 -3 0 -2 -46
2 -102 4 -57 5 -101 2 -98 -3 3 -16 50 -28 105 -12 55 -25 103 -28 107 -4 4
-44 -23 -90 -59 -58 -45 -78 -57 -63 -37 12 16 42 56 66 90 l45 61 -92 28
c-51 16 -95 32 -100 35 -6 6 38 5 156 -3 20 -1 37 1 37 6 0 5 -18 49 -40 98
-22 49 -40 92 -40 96 0 4 25 -28 56 -70 31 -43 58 -76 61 -74 16 16 -168 413
-271 584 -63 107 -115 173 -66 85 23 -41 25 -58 4 -44 -6 4 -27 34 -47 67 -22
38 -54 74 -84 95 -149 104 -149 104 -48 8 99 -94 214 -220 185 -203 -8 4 -41
31 -72 58 -67 57 -74 55 -20 -6 60 -66 165 -207 160 -213 -3 -3 -58 50 -122
118 l-117 123 47 -78 c26 -42 45 -79 43 -81 -6 -7 -117 129 -177 218 -77 114
-79 114 -25 -2 43 -94 53 -108 110 -153 60 -47 76 -69 52 -69 -6 0 -26 12 -45
26 -19 15 -34 23 -34 20 0 -22 29 -51 110 -111 49 -37 90 -73 90 -81 0 -22
-10 -17 -80 36 -36 26 -66 47 -68 46 -9 -10 17 -41 59 -72 27 -20 49 -42 49
-50 0 -18 -10 -18 -39 2 -23 16 -23 16 -16 -7 4 -13 16 -41 26 -61 19 -38 19
-38 -1 -38 -13 0 -25 12 -35 35 -8 19 -23 52 -32 73 l-16 37 -11 -27 c-11 -32
-15 -33 -42 -14 -19 14 -19 15 2 58 15 30 19 50 13 66 -5 12 -11 22 -14 22 -3
0 -21 -25 -40 -55 -32 -50 -37 -54 -55 -43 -11 7 -20 17 -20 23 0 5 21 40 46
77 39 58 44 70 34 88 -12 22 -12 22 -39 -10 l-26 -32 -19 21 c-18 20 -18 21
13 56 17 20 31 39 31 43 0 12 -94 221 -98 217 -2 -1 1 -20 7 -41 16 -61 24
-177 16 -230 l-7 -49 -15 40 c-8 22 -20 67 -27 100 l-13 60 -13 -60 c-16 -79
-60 -195 -73 -195 -6 0 -8 52 -5 152 5 149 5 151 -13 126 -11 -14 -35 -38 -55
-53 l-35 -27 7 39 c12 68 43 139 80 182 20 23 35 44 33 46 -2 2 -36 -10 -74
-27 -39 -16 -80 -34 -92 -38 l-21 -9 18 -70 c10 -40 14 -71 8 -71 -26 0 -47
23 -53 58 -8 49 -18 64 -38 56 -21 -8 -21 -19 3 -124 11 -47 20 -92 20 -101 0
-25 -49 -12 -55 15 -3 11 -12 54 -20 95 -9 41 -17 76 -19 78 -2 2 -11 1 -20
-3 -15 -6 -16 -15 -11 -58 4 -28 8 -53 9 -56 2 -9 -13 -11 -39 -4 -21 5 -25
12 -25 46 0 44 -2 44 -84 7 -40 -18 -41 -18 -63 3 -13 12 -23 25 -23 29 0 3
27 17 60 29 33 12 60 24 60 26 0 2 -25 15 -55 29 -41 18 -55 29 -55 44 0 28 4
27 96 -15 60 -27 83 -33 98 -26 18 8 5 17 -89 64 -159 79 -154 75 -148 97 5
18 18 14 154 -54 136 -68 190 -88 189 -67 -1 4 -32 23 -70 42 -47 23 -70 40
-70 52 0 10 3 18 6 18 4 0 46 -21 94 -46 l87 -46 89 33 89 34 -105 6 c-99 6
-153 15 -245 41 -38 11 -39 12 -15 19 14 4 52 8 85 9 l60 2 -70 22 c-110 35
-325 119 -325 126 0 8 218 -32 297 -55 30 -9 57 -15 58 -13 2 2 -44 28 -101
58 -57 29 -104 57 -104 62 0 13 199 -61 304 -114 56 -27 97 -45 91 -40 -5 6
-64 47 -130 91 -117 79 -121 81 -180 81 -55 0 -85 11 -85 31 0 5 19 9 42 11
l42 3 -29 19 c-22 15 -55 21 -138 25 -102 6 -111 8 -126 30 l-16 24 90 -6 c90
-7 90 -7 66 12 -15 12 -50 22 -88 26 -47 5 -66 11 -73 25 -15 28 -13 30 23 24
28 -6 23 0 -40 45 -40 29 -73 56 -73 60 0 23 20 15 91 -34 80 -55 92 -58 63
-17 -9 13 -14 26 -11 29 14 14 47 -12 71 -58 26 -46 72 -99 88 -99 4 0 -14 37
-38 81 -25 45 -43 83 -40 86 14 15 51 -29 100 -119 30 -57 64 -109 75 -116 26
-15 26 -11 1 30 -25 42 -25 58 0 51 12 -3 20 0 20 7 0 7 28 -12 63 -41 34 -29
73 -62 87 -73 13 -12 4 4 -21 34 -82 99 -170 220 -161 220 5 0 35 -28 67 -62
145 -156 185 -198 185 -194 0 2 -16 30 -35 62 -32 53 -47 91 -27 69 54 -60
131 -159 169 -215 25 -39 47 -70 49 -70 1 0 -14 36 -34 81 -30 67 -46 89 -96
131 -34 28 -61 57 -61 64 0 15 -93 86 -235 179 -99 65 -272 165 -285 165 -4 0
15 -18 44 -41 58 -46 66 -60 19 -31 -18 11 -60 36 -93 55 l-60 35 -5 -66 c-3
-37 -8 -60 -12 -52 -3 8 -14 38 -23 65 -10 28 -21 54 -25 58 -4 4 -39 1 -79
-8 -40 -10 -74 -15 -77 -12 -3 2 20 17 51 33 30 16 55 31 55 34 0 3 -41 23
-90 45 -50 21 -88 40 -86 42 2 3 35 -5 74 -16 89 -27 93 -26 46 5 -52 34 -120
101 -145 142 -15 23 -28 32 -47 32 -14 0 -44 9 -67 20 -56 27 -82 77 -97 182
-6 45 -15 87 -19 92 -11 12 -12 -4 -9 -95 2 -79 -13 -140 -43 -174 -39 -46
-173 -50 -220 -7 -37 33 -50 75 -56 181 -8 147 -28 146 -33 -1 -4 -123 -15
-158 -61 -192 -22 -16 -43 -21 -91 -21 -53 0 -69 5 -99 28 -47 35 -60 84 -55
201 2 62 -1 91 -9 93 -7 3 -14 -16 -18 -54 -12 -122 -16 -140 -35 -171 -34
-55 -75 -74 -149 -69 -118 9 -153 58 -150 214 2 57 -1 106 -4 110 -15 14 -26
-15 -36 -94 -11 -89 -47 -183 -47 -124 0 11 3 18 7 15 12 -7 17 34 5 47 -8 9
-8 10 0 6 13 -7 14 59 1 79 -3 6 -3 14 1 18 4 4 8 20 8 34 1 15 5 35 9 44 4 9
4 22 0 28 -3 5 -2 10 4 10 5 0 12 -6 14 -12 3 -7 4 1 3 17 -2 17 5 39 13 50
15 18 15 19 0 7 -14 -11 -16 -9 -16 13 0 19 3 23 12 15 8 -7 12 -5 12 5 0 8
-4 12 -8 10 -14 -9 -69 53 -69 79 0 27 34 66 59 66 14 0 14 2 1 9 -8 6 -18 7
-24 4 -5 -3 -6 -2 -3 4 4 7 34 6 89 -3 109 -16 204 -27 198 -21 -3 3 -63 17
-134 31 -71 15 -162 38 -203 51 l-73 23 0 -26z m140 -218 c0 -8 -19 -13 -24
-6 -3 5 1 9 9 9 8 0 15 -2 15 -3z m0 -29 c0 -2 -6 -8 -13 -14 -10 -8 -14 -7
-14 2 0 8 6 14 14 14 7 0 13 -1 13 -2z m-3 -47 c2 -17 0 -19 -7 -8 -5 8 -6 18
-4 22 8 12 10 10 11 -14z m954 -573 c7 19 8 19 8 -2 1 -21 4 -20 37 15 35 36
35 36 14 5 -11 -18 -23 -42 -25 -53 -3 -18 2 -20 48 -22 50 -1 51 -2 10 -5
-42 -4 -55 -16 -30 -27 6 -3 1 -3 -13 0 l-24 7 25 -34 c44 -58 43 -65 -1 -24
-38 36 -42 38 -36 15 6 -23 6 -24 -5 -5 -12 18 -14 17 -26 -25 l-13 -45 5 54
4 54 -22 -19 c-18 -16 -19 -16 -8 -1 18 22 9 22 -42 -4 -48 -24 -41 -14 18 25
l40 26 -30 1 c-23 0 -26 2 -12 8 15 6 12 10 -19 24 -46 23 -39 32 9 12 47 -20
50 -19 36 8 -11 20 -11 21 6 7 16 -14 17 -12 11 30 l-6 45 17 -45 c14 -38 17
-41 24 -25z m-350 -369 c-23 -103 -41 -191 -41 -197 0 -6 61 64 136 155 74 91
138 166 141 166 3 0 -6 -15 -19 -32 -14 -18 -58 -78 -98 -133 -40 -55 -86
-117 -101 -137 -16 -20 -29 -39 -29 -42 0 -4 287 154 315 173 25 18 105 61
105 57 0 -2 -87 -59 -192 -126 -106 -68 -195 -125 -198 -127 -7 -7 49 2 269
43 101 19 188 33 194 31 6 -2 -92 -25 -216 -52 -125 -27 -227 -52 -227 -55 0
-3 107 -21 238 -39 215 -30 280 -41 226 -41 -10 0 -120 11 -244 24 -124 13
-227 22 -229 20 -2 -1 95 -52 215 -113 121 -60 216 -110 213 -110 -8 -1 -374
163 -411 184 -14 8 -29 15 -33 15 -4 0 35 -45 86 -100 221 -237 232 -253 60
-90 -96 91 -171 156 -168 145 4 -11 38 -103 76 -205 39 -101 69 -186 67 -187
-2 -2 -42 87 -91 197 -48 110 -89 199 -91 198 -1 -2 -8 -95 -16 -208 l-13
-205 -5 205 -5 205 -100 -187 c-55 -102 -101 -185 -102 -184 -2 2 35 87 82
191 47 103 85 190 85 192 0 2 -53 -40 -117 -93 -219 -182 -228 -189 -203 -160
14 15 85 82 157 149 73 66 131 122 130 123 -1 2 -97 -31 -212 -71 -115 -41
-210 -73 -212 -71 -2 2 83 38 189 81 106 43 200 82 208 87 9 6 -73 8 -225 5
-260 -5 -251 6 15 18 90 4 172 10 183 14 12 5 -53 29 -202 76 -121 38 -219 70
-217 72 1 2 104 -24 227 -56 123 -33 225 -59 226 -57 1 1 -81 64 -182 140
-102 76 -185 140 -185 143 0 2 86 -54 192 -126 106 -71 194 -129 196 -127 1 2
-24 46 -56 97 -137 217 -162 259 -158 259 3 0 59 -77 125 -171 67 -95 121
-166 121 -159 0 8 -11 92 -26 188 -14 95 -23 179 -21 185 2 6 21 -76 42 -181
22 -106 42 -192 45 -192 3 0 29 88 59 195 30 107 56 193 59 191 2 -2 -15 -88
-37 -190z m-1121 -1043 c15 12 56 47 91 77 l62 55 -66 -97 -67 -96 47 -10 c27
-6 72 -14 101 -18 28 -3 52 -10 52 -14 0 -5 -42 -10 -94 -12 -52 -1 -97 -6
-101 -10 -4 -3 16 -48 44 -99 28 -50 50 -93 49 -95 -2 -1 -34 33 -73 77 -38
43 -72 79 -76 79 -3 0 -23 -42 -44 -92 -21 -51 -42 -97 -45 -101 -4 -5 1 40
12 98 11 59 17 109 14 112 -3 3 -47 -6 -99 -21 -51 -14 -97 -26 -102 -26 -6 0
32 23 83 52 50 28 92 54 92 58 0 4 -36 33 -80 65 -45 32 -79 59 -77 61 2 2 46
-14 97 -36 52 -22 95 -40 96 -40 1 0 1 51 -2 113 l-4 112 31 -107 31 -108 28
23z m2025 -40 c16 -60 30 -110 31 -112 2 -2 39 28 83 68 43 39 82 71 86 71 8
0 -104 -161 -120 -172 -5 -4 -8 -8 -5 -9 3 -1 59 -11 124 -23 85 -15 121 -25
123 -36 4 -12 3 -12 -5 -1 -8 10 -33 12 -126 6 -64 -4 -116 -8 -116 -10 0 -11
99 -180 107 -182 6 -2 -7 30 -29 72 -21 41 -37 75 -34 75 3 0 9 0 13 0 4 0 8
-7 9 -16 4 -23 11 -27 18 -9 3 9 2 14 -2 11 -4 -2 -8 3 -8 13 0 10 5 18 11 18
7 0 11 -13 10 -29 -1 -16 2 -31 7 -34 5 -3 8 -2 7 3 -3 20 2 34 11 28 6 -4 7
-11 4 -17 -4 -7 -2 -8 5 -4 9 6 9 11 1 21 -8 9 -8 15 0 20 6 3 8 11 5 16 -4 5
-1 9 5 9 7 0 9 -8 5 -19 -3 -11 -1 -22 4 -26 7 -4 8 1 4 12 -6 16 -5 17 12 3
10 -8 16 -10 12 -3 -4 6 -4 13 0 16 5 2 2 2 -4 1 -7 -2 -13 2 -13 7 0 6 9 9
20 6 11 -3 20 0 20 6 0 6 3 8 6 5 3 -4 1 -17 -6 -30 -11 -22 -10 -22 4 -4 9
11 16 24 16 29 0 4 5 5 10 2 8 -5 7 -12 -2 -23 -11 -15 -11 -15 3 -5 9 7 19
10 22 7 3 -3 4 11 2 32 -2 25 0 33 6 23 5 -8 9 -22 9 -31 0 -33 15 -26 16 7 0
20 -4 31 -9 28 -6 -4 -7 -1 -2 7 6 10 12 7 26 -11 9 -13 15 -28 11 -33 -3 -5
-9 -1 -13 10 -6 15 -8 15 -8 3 -1 -9 6 -22 15 -29 8 -8 14 -9 12 -3 -2 6 2 11
7 11 6 0 9 -5 7 -12 -2 -6 5 -3 14 6 17 17 19 17 38 0 20 -16 20 -16 7 1 -7 9
-9 17 -3 17 15 0 33 -26 24 -35 -4 -5 -2 -5 5 -2 6 4 10 15 8 25 -2 9 -4 22
-4 27 -1 6 -6 3 -11 -5 -7 -12 -9 -11 -8 6 1 11 8 21 14 21 7 0 12 -3 11 -6
-2 -9 21 -71 27 -71 3 0 3 6 1 13 -2 6 -7 25 -9 40 -4 23 -2 26 8 18 7 -6 17
-7 22 -3 4 4 2 -1 -5 -10 -8 -11 -10 -25 -6 -35 5 -10 7 -22 6 -26 -1 -5 3 -6
9 -2 6 3 8 11 5 16 -4 5 -1 9 4 9 6 0 11 -5 11 -12 0 -6 3 -8 6 -5 4 4 1 14
-6 22 -11 13 -15 13 -21 3 -6 -8 -9 -9 -9 -2 0 6 7 17 16 24 8 8 14 9 12 3 -2
-6 2 -11 7 -11 6 0 9 5 7 12 -2 6 0 7 5 3 4 -5 8 -14 8 -20 0 -7 7 -12 15 -12
18 0 30 -46 16 -65 -9 -13 -9 -13 5 -2 13 10 18 10 28 -1 6 -8 8 -17 4 -21 -4
-4 1 -4 11 0 14 5 15 9 4 15 -10 7 -9 9 5 9 11 0 17 -8 17 -21 0 -11 -4 -17
-10 -14 -14 9 -12 -1 3 -13 10 -9 13 -4 15 18 2 20 -4 32 -18 40 -14 8 -20 8
-20 0 0 -6 -5 -8 -12 -4 -9 6 -9 9 0 12 7 2 9 8 6 14 -4 6 -10 5 -15 -3 -6
-10 -8 -8 -6 8 2 12 7 26 11 30 4 5 6 1 4 -7 -2 -8 3 -14 10 -12 8 1 11 -2 7
-7 -6 -10 28 -34 37 -26 2 2 5 -12 6 -32 2 -20 7 -43 11 -51 7 -12 10 -11 16
8 6 18 9 20 16 9 5 -8 8 -21 8 -29 0 -10 -3 -8 -9 5 -7 16 -9 17 -9 3 -1 -9 4
-20 9 -23 6 -4 7 -11 4 -17 -4 -7 -2 -8 4 -4 12 7 13 4 16 -33 0 -11 5 -23 9
-28 5 -4 7 -3 5 2 -2 6 2 10 7 10 6 0 9 -8 9 -17 -1 -10 2 -15 6 -13 12 7 6
31 -11 52 -24 28 -31 43 -20 43 6 0 11 -7 11 -16 0 -8 5 -12 10 -9 7 4 6 13
-1 26 -9 17 -13 18 -27 7 -15 -11 -15 -11 -5 3 7 9 10 18 8 21 -3 3 -8 16 -10
28 -2 12 -2 20 1 17 3 -3 6 -9 6 -14 0 -20 20 -43 31 -37 7 4 9 4 5 -1 -9 -10
10 -47 21 -41 5 3 8 -4 7 -17 -1 -15 4 -21 14 -19 8 2 12 0 8 -4 -4 -4 -3 -12
2 -19 7 -8 5 -12 -5 -12 -7 0 -13 3 -12 6 1 3 -3 6 -8 6 -6 0 -9 -4 -7 -9 1
-4 -3 -14 -9 -22 -9 -11 -8 -18 1 -29 7 -8 9 -15 4 -15 -4 0 -3 -5 4 -12 16
-16 15 -50 0 -68 -11 -12 -10 -12 5 -1 19 15 23 1 5 -18 -7 -7 -8 -12 -3 -11
20 4 22 -1 13 -42 -14 -71 -15 -73 -29 -70 -11 3 -12 1 -1 -9 6 -7 12 -17 12
-22 0 -4 -6 -5 -12 -1 -10 6 -10 4 -2 -7 6 -8 14 -21 18 -29 3 -8 4 -5 2 8 -2
12 -1 20 3 18 4 -3 7 10 6 29 -1 19 1 33 4 31 3 -2 7 12 9 32 1 20 4 46 7 59
2 13 0 21 -4 19 -4 -3 -7 15 -7 39 1 23 -2 41 -6 39 -4 -2 -5 8 -2 22 3 16 0
31 -8 36 -9 5 -6 7 9 5 12 -2 26 -7 30 -12 5 -4 2 -5 -4 -1 -8 4 -13 1 -13 -9
0 -9 4 -14 9 -11 10 7 9 -20 -2 -30 -4 -4 -7 -19 -7 -33 0 -20 3 -22 9 -11 6
8 8 17 5 21 -2 4 0 10 5 14 10 6 8 -17 -5 -49 -5 -13 -4 -17 4 -12 6 3 14 2
17 -4 4 -6 1 -9 -5 -8 -7 2 -14 -8 -16 -22 -2 -14 -6 -38 -9 -53 -3 -20 -1
-26 8 -21 9 5 9 4 0 -6 -10 -10 -10 -17 -1 -27 9 -11 8 -13 -2 -11 -7 2 -15
-3 -17 -10 -3 -8 1 -10 14 -6 17 6 17 6 -1 -8 -13 -10 -17 -21 -12 -34 4 -10
4 -15 0 -11 -4 4 -13 2 -21 -5 -11 -9 -11 -14 4 -32 10 -12 3 -8 -14 8 -18 16
-29 34 -26 40 3 6 3 8 -2 4 -4 -4 -14 -3 -22 3 -23 20 -14 -2 19 -45 50 -64
271 -306 276 -302 2 3 -1 13 -6 23 -6 10 -42 103 -81 207 -39 103 -76 197 -82
208 -6 11 -12 32 -14 46 -5 34 16 -13 120 -265 44 -105 81 -190 83 -188 4 4
-14 314 -25 440 -3 39 -3 68 0 65 3 -3 15 -106 27 -230 12 -124 24 -236 27
-250 4 -17 14 13 34 100 16 69 41 176 55 238 14 62 28 111 30 109 3 -2 -16
-109 -40 -238 -25 -128 -44 -234 -43 -236 2 -1 54 83 116 187 62 105 115 190
117 190 3 0 3 -3 1 -7 -3 -5 -48 -89 -102 -188 -54 -99 -102 -186 -107 -192
-26 -33 15 -4 150 105 165 132 182 145 182 139 0 -3 -70 -67 -155 -143 -86
-76 -152 -140 -147 -142 5 -1 80 16 166 38 87 23 163 39 168 38 5 -2 -70 -28
-166 -58 -97 -30 -170 -57 -164 -60 7 -4 88 -24 180 -45 92 -21 166 -40 164
-43 -4 -3 -219 29 -313 47 -24 5 -43 6 -42 2 0 -3 63 -55 140 -116 77 -60 150
-118 162 -127 12 -10 20 -18 17 -18 -3 0 -77 51 -165 114 -88 63 -161 113
-163 111 -2 -2 40 -79 93 -172 114 -197 111 -191 97 -178 -6 6 -56 82 -111
169 -56 87 -101 152 -101 143 0 -9 18 -102 40 -208 22 -106 39 -196 38 -201
-2 -5 -25 80 -52 189 -27 109 -52 201 -55 205 -4 4 -12 -65 -19 -155 -17 -222
-24 -288 -29 -283 -2 2 1 102 7 221 6 119 10 219 7 221 -2 2 -39 -86 -82 -196
-43 -110 -80 -198 -82 -196 -2 2 28 93 67 204 38 110 70 204 70 207 0 4 -59
-63 -131 -147 -206 -240 -208 -239 -16 10 70 89 124 162 122 162 -3 0 -82 -39
-176 -86 -94 -47 -173 -84 -174 -82 -2 2 65 43 149 91 223 128 223 116 -4 118
l-195 2 115 9 c63 4 151 12 195 16 l80 7 -187 92 c-102 50 -196 101 -207 112
-22 22 -28 37 -12 26 5 -3 12 -1 16 4 3 6 13 8 23 5 15 -5 15 -4 2 6 -13 10
-13 11 2 6 11 -3 21 2 27 12 9 15 10 14 8 -5 0 -12 -4 -21 -7 -21 -19 2 -23
-4 -10 -13 14 -10 10 -10 -30 4 -3 1 -7 -3 -10 -8 -3 -6 18 -21 45 -35 62 -32
338 -151 341 -147 2 2 -91 113 -203 244 -25 29 -50 50 -56 46 -5 -3 -7 -1 -3
5 3 6 2 13 -4 17 -6 3 -10 -3 -10 -15 0 -12 -8 -32 -18 -44 -14 -18 -20 -20
-29 -11 -7 7 -10 15 -7 17 2 3 -3 5 -11 5 -10 0 -12 -4 -6 -10 16 -16 2 -34
-24 -31 -14 1 -23 -3 -22 -9 1 -7 -3 -11 -10 -10 -7 2 -17 -6 -23 -18 -10 -17
-14 -18 -27 -7 -15 12 -15 11 -3 -9 12 -19 15 -19 25 -6 10 13 12 13 24 0 9
-12 9 -17 0 -23 -7 -4 -9 -3 -5 4 3 6 2 13 -4 17 -5 3 -11 1 -11 -4 -1 -6 -2
-15 -3 -20 0 -5 -5 -13 -10 -18 -5 -4 -6 -3 -3 3 4 6 -2 19 -13 29 -11 10 -20
15 -20 10 0 -4 -8 -1 -17 6 -10 7 -15 9 -11 5 4 -5 2 -16 -5 -25 -11 -14 -10
-14 6 -2 14 11 17 11 17 0 0 -12 2 -12 9 -1 6 11 10 10 15 -4 4 -10 4 -15 0
-11 -4 4 -16 -1 -27 -10 -11 -10 -17 -12 -13 -5 4 7 1 12 -8 12 -10 0 -13 -6
-10 -17 5 -17 5 -17 -6 0 -6 9 -9 21 -5 26 3 5 -3 8 -12 7 -9 -2 -19 -9 -21
-17 -3 -11 -2 -12 6 -1 7 11 11 10 16 -4 4 -9 2 -22 -4 -28 -8 -8 -9 -5 -4 9
7 18 6 18 -9 6 -9 -7 -17 -10 -17 -7 0 4 -6 4 -12 -1 -30 -18 -45 -10 -39 21
1 5 -5 4 -13 -4 -17 -13 -22 -25 -8 -16 5 3 9 -1 9 -8 0 -7 -6 -13 -13 -13 -7
0 -11 4 -8 9 3 5 -8 6 -25 3 -16 -3 -33 -1 -36 5 -3 6 1 7 12 4 17 -5 17 -5 0
6 -9 6 -15 15 -12 20 3 5 1 11 -4 15 -6 3 -8 -3 -6 -14 4 -23 -29 -58 -40 -41
-3 5 -11 8 -16 5 -5 -3 -6 1 -2 10 5 13 7 14 14 3 7 -10 9 -10 9 2 0 13 1 13
10 0 8 -11 9 -9 6 10 -3 14 -5 27 -5 30 -1 2 -6 -1 -13 -8 -17 -17 -28 -15
-21 6 5 15 4 15 -9 -1 -12 -17 -16 -17 -27 -4 -8 11 -9 17 -1 22 6 3 8 11 4
16 -3 5 -10 7 -15 3 -5 -3 -7 -10 -4 -15 4 -5 0 -9 -7 -9 -9 0 -9 -3 2 -10 13
-8 13 -10 -2 -10 -9 0 -19 -6 -22 -12 -4 -7 -4 -3 -2 10 3 14 0 20 -7 15 -7
-4 -8 0 -4 11 4 10 3 15 -3 11 -5 -3 -14 4 -20 15 -6 11 -15 19 -19 17 -5 -1
-9 3 -9 8 0 6 4 9 10 7 5 -1 6 2 3 8 -5 8 -13 6 -25 -5 -21 -19 -36 -5 -25 23
5 14 4 15 -7 4 -15 -15 2 -49 23 -44 10 2 10 0 0 -12 -7 -9 -8 -17 -2 -20 5
-4 12 1 14 9 4 12 5 12 3 -1 -2 -26 -33 -26 -32 0 1 11 -4 20 -11 19 -6 -1
-17 4 -23 13 -10 11 -9 18 4 33 12 13 14 21 6 26 -6 3 -9 3 -8 -2 2 -4 -1 -9
-6 -10 -5 -1 -13 -7 -17 -15 -7 -10 -9 -10 -9 0 0 7 -4 11 -9 7 -5 -3 -13 -1
-16 5 -4 6 -1 9 5 8 7 -2 14 5 15 15 3 14 0 16 -10 7 -16 -13 -29 3 -30 35 -1
11 -5 19 -11 18 -11 -2 -13 106 -1 124 4 6 2 15 -4 19 -7 4 -9 3 -5 -4 3 -6 2
-13 -4 -17 -14 -8 -13 48 1 62 8 8 7 13 -2 18 -7 5 -10 4 -5 -3 3 -6 2 -13 -4
-17 -6 -4 -10 5 -10 20 0 14 4 24 9 20 5 -3 12 -1 15 4 4 5 -2 8 -11 6 -15 -2
-18 -11 -15 -56 2 -29 7 -58 13 -65 6 -7 6 -21 0 -37 -5 -14 -7 -28 -3 -33 4
-4 2 -4 -5 0 -9 5 -9 14 -3 32 14 37 13 39 -12 18 -13 -10 -17 -12 -11 -4 10
11 10 17 0 29 -10 12 -9 13 2 6 12 -7 13 1 7 45 -4 30 -10 59 -14 64 -10 17
-11 37 -1 30 5 -3 7 -9 4 -14 -3 -5 -1 -11 5 -15 5 -3 10 3 10 14 0 11 -5 23
-10 26 -6 4 -7 12 -3 18 4 7 8 17 8 22 1 6 6 9 13 8 6 -2 9 4 6 12 -4 8 -11
12 -18 8 -7 -4 -7 -1 1 9 7 8 9 19 5 23 -4 5 -1 5 7 0 9 -5 12 -3 9 6 -3 8
-10 13 -16 12 -6 -1 -5 14 3 41 16 51 40 195 34 201 -3 2 -50 -9 -104 -25 -55
-16 -104 -30 -110 -30 -5 0 36 26 92 58 l103 58 -91 67 c-50 37 -87 67 -83 67
5 0 51 -18 102 -40 51 -22 95 -40 98 -40 4 0 3 52 -1 115 -4 63 -5 115 -2 115
2 0 17 -48 32 -107z m440 -183 c-3 -5 -1 -11 4 -14 5 -4 12 1 14 9 4 11 4 10
3 -2 -1 -10 -6 -18 -13 -18 -6 0 -15 -3 -19 -7 -12 -12 -33 12 -27 29 5 12 3
14 -7 8 -9 -6 -11 -4 -5 5 6 10 11 10 20 -3 7 -9 15 -14 18 -10 4 3 1 13 -6
22 -11 14 -10 14 5 2 10 -7 16 -17 13 -21z m-1019 -68 c-11 -19 -66 -165 -63
-168 2 -2 26 5 54 16 l50 19 12 -26 c7 -14 8 -29 4 -33 -4 -4 -42 -19 -84 -34
-64 -23 -77 -32 -87 -58 -6 -18 -10 -33 -9 -35 2 -1 60 16 130 39 69 23 128
40 131 38 2 -3 7 -17 11 -31 6 -25 4 -26 -150 -75 -146 -45 -158 -51 -169 -79
-7 -16 -10 -31 -7 -33 4 -1 39 9 79 22 l73 25 10 -26 c5 -14 6 -29 2 -33 -4
-4 -48 -19 -98 -34 -49 -15 -94 -32 -99 -37 -12 -11 -146 -342 -141 -347 2 -2
9 7 16 20 22 42 132 182 193 247 58 60 177 161 190 161 10 0 -38 -90 -88 -164
-25 -38 -46 -71 -46 -73 0 -2 19 11 43 30 92 74 352 235 363 224 7 -6 -233
-249 -301 -305 l-50 -42 60 24 c83 33 205 69 211 63 18 -18 -230 -178 -368
-237 -43 -19 -76 -35 -74 -37 2 -2 75 8 164 23 l160 27 48 86 c26 47 49 87 50
89 1 2 14 -4 28 -13 l26 -17 -36 -64 c-31 -56 -33 -64 -17 -64 48 0 62 14 133
136 40 68 75 126 79 128 10 6 51 -13 51 -23 0 -6 -27 -55 -60 -109 -33 -55
-60 -102 -60 -104 0 -3 14 -2 31 0 26 4 39 16 71 68 42 67 52 73 83 50 18 -13
18 -15 -9 -51 -15 -20 -26 -39 -23 -41 3 -3 40 1 84 9 43 8 79 14 80 13 2 -1
6 -16 9 -33 l6 -31 -68 -11 c-38 -6 -82 -14 -97 -17 l-28 -6 45 -35 c44 -34
45 -36 29 -59 -8 -13 -18 -24 -22 -24 -4 0 -36 24 -72 54 -55 45 -70 52 -97
48 -36 -5 -40 -15 -14 -34 11 -7 54 -46 96 -85 l78 -73 -19 -24 -19 -24 -120
109 c-89 81 -126 109 -146 109 -45 0 -41 -16 17 -67 30 -26 55 -53 55 -59 0
-6 -8 -18 -18 -27 -17 -15 -23 -12 -98 58 l-81 74 -178 -30 c-98 -16 -181 -31
-183 -34 -3 -3 15 -5 39 -5 61 0 243 -27 309 -45 86 -24 200 -69 200 -78 0 -5
-62 -8 -137 -5 l-138 3 91 -41 c138 -62 332 -170 322 -179 -11 -11 -298 62
-409 105 l-54 20 40 -32 c22 -18 72 -63 110 -101 77 -76 74 -77 -52 -25 -85
35 -224 121 -319 196 -36 29 -64 49 -63 43 2 -5 60 -79 128 -165 l124 -156
102 0 102 0 -5 -30 -4 -30 -69 0 c-38 0 -69 -4 -69 -8 0 -5 10 -18 23 -30 21
-20 35 -22 172 -24 l150 -3 -3 -25 c-2 -14 -5 -26 -5 -26 -1 -1 -54 -5 -117
-8 -63 -4 -115 -8 -117 -10 -1 -1 4 -12 13 -24 13 -20 24 -22 95 -22 l80 0 -3
-32 c-3 -33 -4 -33 -50 -30 -27 2 -48 0 -48 -3 0 -3 23 -34 50 -68 28 -34 50
-65 50 -68 0 -4 -11 -14 -24 -22 -23 -16 -25 -15 -77 53 -30 38 -57 69 -60 70
-3 0 -10 -24 -15 -52 -7 -39 -14 -54 -27 -56 -42 -8 -45 1 -29 92 14 78 14 87
-2 110 -9 15 -20 26 -24 26 -4 0 -20 -58 -37 -130 -23 -105 -32 -130 -46 -130
-48 0 -48 3 -8 171 38 155 38 161 21 184 -9 14 -20 25 -23 25 -3 0 -14 -36
-24 -81 -18 -78 -19 -80 -44 -74 -14 4 -28 8 -30 10 -2 3 8 50 22 107 14 56
22 107 18 113 -53 69 -207 264 -218 275 -8 8 0 -16 16 -53 64 -143 121 -353
121 -446 l0 -25 -17 23 c-9 13 -41 70 -70 125 -30 56 -51 90 -48 76 12 -44 17
-467 5 -448 -18 29 -77 250 -95 353 -9 55 -18 101 -19 103 -2 1 -6 -21 -9 -50
-8 -64 -45 -210 -57 -222 -13 -13 -25 116 -24 254 1 111 14 238 30 295 4 14 3
17 -4 10 -11 -10 -142 -340 -142 -356 0 -5 21 -46 47 -90 45 -78 46 -82 28
-95 -30 -22 -38 -17 -74 49 l-35 62 -12 -30 c-7 -17 -13 -36 -14 -44 0 -7 32
-69 71 -138 39 -69 69 -126 67 -128 -10 -8 -50 -26 -52 -23 -2 2 -30 50 -62
107 l-58 104 -13 -32 c-12 -29 -10 -37 22 -101 l35 -69 -29 -15 c-28 -15 -28
-15 -46 24 -10 22 -21 40 -25 40 -3 0 -19 -34 -35 -75 -15 -41 -31 -75 -34
-75 -22 1 -51 14 -51 24 0 6 14 44 31 85 17 40 28 75 25 78 -3 3 -23 -2 -46
-11 -52 -21 -55 -21 -68 9 -13 28 -13 29 86 65 48 17 67 30 78 52 9 17 13 32
10 35 -3 3 -60 -13 -127 -36 -68 -22 -126 -38 -130 -33 -4 4 -10 17 -13 29 -7
21 2 25 153 73 149 47 160 52 170 80 12 37 9 37 -81 8 -37 -12 -70 -20 -72
-17 -2 2 -7 15 -10 29 -6 24 -3 26 91 54 54 16 103 34 109 40 16 15 144 336
134 336 -4 0 -19 -17 -32 -38 -78 -117 -268 -314 -341 -354 -16 -8 -16 -5 4
34 12 24 42 75 68 113 25 39 50 77 55 85 5 8 -10 -1 -35 -21 -101 -82 -353
-238 -365 -226 -7 7 203 223 274 282 34 27 60 51 58 52 -1 2 -30 -8 -63 -22
-67 -27 -203 -67 -203 -59 0 10 57 56 135 108 84 56 205 120 289 151 27 11 45
20 40 22 -17 5 -348 -54 -351 -63 -11 -29 -90 -158 -98 -160 -5 -2 -18 3 -29
11 -18 13 -17 17 19 81 28 50 33 65 21 61 -10 -4 -28 -7 -41 -7 -19 0 -37 -23
-102 -135 l-79 -134 -26 17 -26 17 63 108 c59 99 62 107 41 107 -31 0 -48 -16
-90 -83 -32 -50 -39 -56 -56 -47 -31 17 -32 28 -6 67 14 20 24 38 23 39 -1 1
-38 -4 -82 -12 -85 -15 -99 -11 -93 27 3 22 11 25 92 38 l90 14 -43 38 c-42
37 -42 38 -25 64 19 29 12 31 101 -43 48 -40 56 -44 90 -37 l38 7 -30 25 c-17
14 -61 55 -99 90 -65 61 -68 66 -55 89 7 13 16 24 21 24 7 0 46 -35 203 -181
35 -33 44 -37 73 -31 l34 7 -62 59 c-58 56 -60 59 -44 77 9 11 21 19 26 19 4
0 42 -32 83 -71 l75 -72 167 27 c182 30 232 45 146 46 -121 0 -310 39 -432 88
l-66 26 40 9 c22 5 85 6 140 3 l100 -6 -55 24 c-88 37 -250 121 -310 161 l-55
36 50 -6 c66 -8 259 -59 342 -90 36 -14 68 -24 70 -22 2 2 -14 16 -34 30 -44
29 -173 149 -173 160 0 10 121 -37 203 -80 39 -21 113 -68 164 -105 51 -37 93
-65 93 -63 0 2 -46 61 -101 130 l-102 125 -104 0 c-92 0 -104 2 -99 16 3 9 6
22 6 30 0 11 16 14 70 14 39 0 70 3 70 8 -1 4 -11 20 -24 36 l-24 29 -146 -5
c-80 -3 -147 -4 -149 -2 -2 2 -2 17 1 34 l4 30 120 0 120 0 -14 23 c-13 18
-29 23 -97 31 -81 8 -81 8 -81 37 0 28 1 29 51 29 l51 0 -52 65 c-51 64 -52
66 -35 85 10 11 22 20 26 20 4 0 32 -31 61 -69 29 -39 56 -70 59 -70 4 -1 10
24 14 54 6 52 8 55 34 55 15 0 30 -2 32 -5 3 -2 -1 -43 -9 -89 -14 -79 -14
-87 2 -111 10 -15 21 -23 26 -19 4 5 20 64 36 132 27 121 28 122 56 122 19 0
28 -5 28 -16 0 -9 -16 -84 -35 -167 l-36 -151 24 -23 23 -24 19 80 c17 73 21
81 42 81 13 0 26 -6 29 -14 3 -7 -6 -57 -20 -111 l-25 -99 79 -100 c44 -56 93
-117 109 -136 l31 -35 -29 65 c-63 143 -121 355 -121 444 0 30 2 28 37 -29 20
-33 51 -91 70 -130 19 -40 31 -57 28 -40 -12 57 -18 461 -7 450 17 -16 71
-211 93 -335 12 -63 22 -116 24 -118 1 -1 5 21 9 50 8 63 45 209 56 222 28 30
32 -347 7 -488 -17 -91 -16 -118 2 -75 39 91 131 332 131 342 0 7 -20 47 -45
89 -25 43 -45 79 -45 81 0 3 11 12 25 21 24 16 24 16 62 -49 l37 -65 13 31 c7
17 13 37 13 45 0 7 -32 68 -70 136 -65 112 -69 124 -53 135 9 7 22 13 29 13 6
0 37 -45 69 -100 31 -55 60 -98 65 -95 4 3 11 17 14 31 5 19 -2 43 -29 91 -20
36 -35 66 -33 68 2 1 14 8 27 15 21 11 26 10 38 -6 8 -11 16 -29 20 -41 8 -33
17 -28 32 15 8 20 22 56 32 79 17 41 19 42 48 32 17 -6 29 -14 27 -17z m766
-4 c-8 -8 -9 -4 -5 13 4 13 8 18 11 10 2 -7 -1 -18 -6 -23z m575 -54 c0 -7 -4
-11 -8 -8 -4 2 -10 -6 -12 -18 -3 -16 -4 -13 -4 8 1 29 24 46 24 18z m93 -215
c0 -6 -4 -7 -10 -4 -5 3 -10 11 -10 16 0 6 5 7 10 4 6 -3 10 -11 10 -16z
m-4039 -205 c-18 -67 -81 -387 -78 -390 2 -2 57 75 122 171 65 96 121 175 123
175 2 0 1 -3 -1 -7 -3 -5 -55 -90 -116 -190 -61 -101 -108 -183 -104 -183 3 0
14 6 22 13 26 22 331 228 331 224 0 -2 -74 -62 -165 -132 -91 -71 -164 -130
-162 -132 2 -2 87 13 187 32 101 20 187 34 192 33 5 -2 -80 -26 -189 -53
l-198 -49 203 -50 c111 -27 201 -51 198 -53 -2 -2 -90 12 -197 31 -106 20
-194 34 -196 33 -1 -2 72 -58 162 -126 91 -68 165 -125 165 -127 0 -4 -197
125 -288 188 -24 17 -45 28 -47 26 -2 -2 45 -81 105 -176 60 -95 112 -177 115
-183 4 -5 4 -9 1 -9 -2 0 -57 75 -122 168 -64 92 -120 171 -124 175 -4 5 12
-78 37 -185 24 -106 46 -206 49 -223 4 -28 4 -29 -5 -5 -5 14 -33 110 -62 213
-28 103 -53 186 -54 185 -2 -2 -13 -104 -25 -228 -12 -124 -24 -227 -27 -230
-3 -3 -3 31 1 75 3 44 8 148 11 230 l6 150 -44 -90 c-23 -49 -67 -145 -97
-212 -29 -68 -55 -121 -57 -119 -2 1 33 95 78 207 44 112 83 211 86 219 3 8
-70 -59 -162 -150 -182 -178 -179 -169 13 44 68 76 122 139 120 142 -3 2 -89
-32 -193 -76 -104 -44 -190 -78 -192 -76 -1 1 84 45 190 97 l192 94 -204 7
c-112 4 -208 9 -215 12 -6 2 43 5 109 6 66 1 162 5 212 9 l92 6 -199 94 c-110
52 -198 96 -197 98 2 2 91 -33 197 -77 107 -43 195 -78 197 -76 2 1 -65 79
-148 172 -143 159 -146 163 -53 73 144 -140 226 -219 229 -219 2 0 -35 91 -81
202 -46 111 -82 203 -80 205 1 2 43 -82 92 -186 48 -105 90 -188 92 -186 2 2
-1 80 -7 173 -16 253 -11 271 14 50 13 -108 25 -205 27 -215 2 -10 21 47 41
127 73 277 79 301 84 296 2 -2 0 -21 -6 -42z m3979 -228 c0 -2 -8 -10 -17 -17
-16 -13 -17 -12 -4 4 13 16 21 21 21 13z m-620 -120 c0 -6 -7 -1 -16 10 -14
17 -15 17 -10 1 3 -10 2 -16 -3 -13 -4 3 -8 20 -9 37 l-1 33 20 -30 c10 -16
19 -33 19 -38z m-103 28 c-3 -3 -12 -4 -19 -1 -8 3 -5 6 6 6 11 1 17 -2 13 -5z
m183 -44 c0 7 3 11 6 7 3 -3 2 -13 -4 -22 -8 -16 -9 -16 -15 0 -4 9 -11 14
-16 10 -5 -3 -13 0 -17 6 -4 8 -3 9 4 5 7 -4 12 -1 12 6 1 8 6 6 15 -6 10 -13
15 -15 15 -6z m84 -38 c3 -5 -1 -9 -9 -9 -8 0 -12 4 -9 9 3 4 7 8 9 8 2 0 6
-4 9 -8z m-2580 -1090 c2 -1 42 32 91 75 l88 77 -67 -96 c-37 -53 -63 -98 -59
-101 5 -2 46 -10 93 -17 130 -20 134 -26 16 -32 -59 -3 -110 -8 -113 -11 -3
-3 18 -50 47 -104 56 -107 58 -108 -56 20 -23 26 -44 47 -47 47 -2 0 -21 -42
-42 -92 -21 -51 -42 -97 -45 -101 -4 -5 1 40 11 99 10 59 17 110 15 112 -2 2
-51 -10 -107 -27 -57 -16 -105 -28 -106 -27 -2 1 40 26 92 55 52 29 95 55 95
59 0 4 -38 34 -85 66 -47 33 -83 61 -81 63 1 2 47 -15 101 -37 54 -22 99 -40
99 -40 1 0 0 48 -1 108 l-3 107 31 -100 c17 -55 32 -101 33 -103z m2311 -144
c15 -54 31 -98 36 -98 4 0 34 23 66 52 32 29 69 61 82 72 13 12 -6 -22 -42
-75 -77 -111 -83 -98 63 -120 100 -16 82 -26 -47 -28 -46 -1 -83 -4 -83 -8 0
-3 23 -49 50 -102 l51 -96 -73 78 c-40 43 -76 77 -79 77 -3 0 -23 -43 -45 -96
-21 -53 -40 -91 -42 -86 -2 6 4 50 12 99 9 48 16 93 16 99 0 7 -37 0 -97 -17
-111 -32 -131 -35 -88 -12 17 8 61 33 98 55 l68 39 -90 65 c-50 36 -91 67 -91
68 0 2 48 -16 106 -40 l106 -44 -7 113 c-4 61 -5 110 -2 107 2 -3 17 -49 32
-102z m-975 -783 c-33 -99 -60 -184 -60 -190 0 -5 71 60 157 145 170 167 173
166 18 -5 -54 -60 -111 -123 -124 -138 l-26 -28 35 15 c19 8 111 48 204 90 92
42 171 76 175 75 3 0 -82 -45 -189 -99 -107 -54 -185 -99 -174 -99 12 -1 113
8 224 19 112 11 204 19 206 17 2 -2 -83 -16 -188 -31 -297 -42 -294 -35 -39
-86 123 -25 217 -46 210 -48 -8 -1 -107 13 -222 31 -114 19 -207 33 -207 31 0
-1 83 -50 185 -109 102 -59 185 -109 185 -112 0 -5 -348 174 -368 190 -39 30
-7 -15 107 -153 71 -85 127 -156 126 -158 -2 -2 -27 23 -56 54 -30 32 -84 90
-120 128 -37 39 -77 82 -88 96 -27 30 -29 41 34 -174 25 -87 44 -160 42 -162
-2 -3 -30 71 -62 163 -32 93 -61 171 -64 175 -4 4 -20 -74 -35 -175 -29 -178
-51 -281 -40 -187 12 113 34 364 32 366 -2 1 -54 -74 -117 -167 -63 -93 -116
-169 -118 -169 -3 0 4 15 15 33 86 139 189 317 185 317 -3 0 -88 -56 -189
-125 -101 -69 -184 -124 -184 -121 0 2 77 61 170 131 94 70 169 129 167 131
-2 2 -97 -21 -212 -51 -313 -83 -284 -69 104 50 l103 32 -58 6 c-33 4 -133 10
-224 14 l-165 8 218 5 218 5 -210 79 c-116 44 -210 81 -208 82 1 2 99 -28 217
-66 117 -38 215 -69 216 -67 1 1 -65 58 -147 126 -204 169 -206 179 -6 28 92
-70 170 -127 173 -127 3 0 -14 37 -39 83 -121 224 -148 277 -144 277 3 0 42
-62 88 -137 45 -76 93 -154 107 -173 l24 -35 -6 180 -5 180 22 -172 c13 -94
25 -174 28 -177 3 -3 38 78 79 179 40 102 75 183 77 182 1 -2 -24 -84 -57
-182z"/>
<path d="M5655 4335 c0 -13 3 -21 8 -18 4 2 7 10 7 18 0 8 -3 16 -7 18 -5 3
-8 -5 -8 -18z"/>
<path d="M5679 4322 c-3 -20 -2 -29 4 -23 5 5 7 19 5 32 -3 20 -5 19 -9 -9z"/>
<path d="M5083 4314 c-3 -10 -23 -59 -44 -109 -26 -64 -34 -94 -27 -102 7 -9
7 -17 -1 -27 -9 -10 -8 -16 3 -26 13 -10 15 -9 12 7 -4 22 19 79 31 76 4 -2 8
15 9 36 0 38 20 78 32 66 3 -3 11 3 16 14 9 16 13 17 23 6 8 -9 9 -16 3 -20
-6 -3 -10 0 -10 7 0 7 -7 3 -14 -8 -15 -21 -18 -67 -5 -58 4 2 5 14 1 27 -5
20 -4 21 14 7 10 -8 16 -10 12 -6 -4 5 -3 15 3 23 10 11 15 11 27 1 24 -20 4
10 -40 62 -33 38 -38 41 -45 24z m22 -43 c3 -5 2 -12 -3 -15 -5 -3 -9 1 -9 9
0 17 3 19 12 6z m-47 -112 c-1 -19 -4 -25 -9 -18 -5 9 -10 4 -15 -14 -3 -16
-9 -25 -12 -23 -4 5 28 85 35 86 1 0 1 -14 1 -31z"/>
<path d="M5083 4219 c-7 -7 -8 -21 -3 -39 5 -16 5 -32 2 -37 -4 -4 -3 -5 2 -1
6 5 16 88 11 88 -1 0 -6 -5 -12 -11z"/>
<path d="M5886 4162 c-3 -5 1 -15 8 -21 11 -10 14 -9 12 3 -3 21 -13 29 -20
18z"/>
<path d="M4995 4021 c3 -2 1 -9 -4 -15 -6 -7 -4 -19 6 -31 12 -15 14 -16 10
-3 -3 9 -1 19 6 22 8 3 7 5 -2 5 -12 1 -11 4 3 14 16 12 16 13 -3 13 -11 0
-18 -2 -16 -5z"/>
<path d="M5035 3790 c-7 -12 3 -68 13 -74 4 -2 7 6 7 19 0 13 -4 21 -9 18 -5
-3 -7 6 -4 21 6 28 3 33 -7 16z"/>
<path d="M5884 3758 c9 -14 13 -28 9 -33 -5 -4 -2 -5 5 -1 13 8 2 39 -19 52
-6 3 -4 -5 5 -18z"/>
<path d="M5060 3700 c-13 -9 -13 -10 0 -10 12 0 12 -2 1 -9 -8 -5 -9 -11 -3
-15 5 -3 13 1 16 10 5 14 9 14 24 3 14 -11 13 -9 -2 9 -11 12 -20 22 -20 22
-1 0 -8 -5 -16 -10z"/>
<path d="M5824 3673 c-13 -31 -13 -55 1 -43 7 6 13 22 13 35 0 30 -3 31 -14 8z"/>
<path d="M5096 3643 c-6 -14 -5 -15 5 -6 7 7 10 15 7 18 -3 3 -9 -2 -12 -12z"/>
<path d="M5120 3601 c0 -6 4 -13 10 -16 6 -3 7 1 4 9 -7 18 -14 21 -14 7z"/>
<path d="M5429 3529 c0 -2 -2 -12 -4 -22 -3 -14 0 -16 10 -7 8 7 15 7 19 1 3
-5 0 -11 -6 -14 -7 -2 -10 -7 -7 -11 3 -3 14 4 25 16 10 13 15 20 10 15 -5 -4
-18 0 -28 10 -10 9 -18 14 -19 12z"/>
<path d="M5543 3518 c-4 -7 -8 -17 -8 -23 -1 -5 -7 -9 -14 -7 -7 1 -10 -2 -6
-8 5 -8 11 -8 19 -1 7 6 17 7 22 3 4 -4 3 0 -4 9 -9 12 -9 18 0 27 7 7 9 12 6
12 -4 0 -10 -6 -15 -12z"/>
<path d="M5476 4378 c3 -5 10 -6 15 -3 13 9 11 12 -6 12 -8 0 -12 -4 -9 -9z"/>
<path d="M4525 6881 c-6 -5 -19 -11 -30 -14 -11 -3 -1 -5 23 -6 23 0 42 3 42
9 0 5 -7 6 -17 3 -11 -4 -14 -3 -9 5 9 14 4 16 -9 3z"/>
<path d="M4690 6848 c-52 -10 -153 -25 -225 -32 l-130 -14 115 0 c63 1 126 5
140 9 14 4 59 13 101 19 72 12 110 24 99 33 -3 2 -48 -5 -100 -15z"/>
<path d="M3443 6805 c4 -8 2 -17 -3 -20 -6 -4 -10 -12 -10 -18 1 -14 23 22 26
41 1 6 -2 12 -8 12 -6 0 -8 -7 -5 -15z"/>
<path d="M4490 6780 c-9 -6 -10 -10 -3 -10 6 0 15 5 18 10 8 12 4 12 -15 0z"/>
<path d="M4519 6773 c-13 -16 -12 -17 4 -4 9 7 17 15 17 17 0 8 -8 3 -21 -13z"/>
<path d="M4537 6763 c-3 -5 -2 -26 2 -48 l7 -40 5 37 c3 22 1 34 -5 31 -5 -4
-7 1 -3 10 6 17 2 23 -6 10z"/>
<path d="M4521 6657 c-8 -10 -7 -14 2 -14 8 0 14 6 14 14 0 7 -1 13 -2 13 -2
0 -8 -6 -14 -13z"/>
<path d="M4505 6620 c-4 -6 -10 -8 -14 -6 -4 3 -8 -1 -8 -9 0 -13 4 -12 19 2
18 16 22 23 14 23 -3 0 -8 -5 -11 -10z"/>
<path d="M4519 6573 c-13 -16 -12 -17 4 -4 9 7 17 15 17 17 0 8 -8 3 -21 -13z"/>
<path d="M4483 6565 c0 -8 4 -12 9 -9 5 3 6 10 3 15 -9 13 -12 11 -12 -6z"/>
<path d="M3554 6538 c-4 -7 -8 -24 -8 -38 -1 -14 -4 -30 -9 -37 -4 -6 -3 -14
3 -18 5 -3 10 0 11 7 0 12 4 36 11 70 2 7 8 16 13 20 6 5 6 8 -2 8 -6 0 -15
-5 -19 -12z"/>
<path d="M4505 6522 c3 -3 -3 -15 -12 -26 -13 -15 -10 -14 10 3 32 29 31 28
12 28 -8 0 -13 -3 -10 -5z"/>
<path d="M4511 6486 c-9 -11 -9 -16 1 -22 7 -4 10 -4 6 1 -4 4 -3 14 3 22 6 7
9 13 6 13 -2 0 -10 -6 -16 -14z"/>
<path d="M4480 6461 c0 -6 4 -13 10 -16 6 -3 7 1 4 9 -7 18 -14 21 -14 7z"/>
<path d="M4489 6417 c25 -27 43 -39 22 -14 -6 8 -7 18 -3 23 4 5 3 6 -2 2 -5
-4 -16 -2 -25 4 -9 7 -5 0 8 -15z"/>
<path d="M4485 6390 c10 -11 20 -20 23 -20 3 0 -3 9 -13 20 -10 11 -20 20 -23
20 -3 0 3 -9 13 -20z"/>
<path d="M4475 6325 c0 -30 2 -51 5 -49 7 8 8 94 1 98 -3 2 -6 -20 -6 -49z"/>
<path d="M4504 6291 c8 -12 -29 -43 -39 -34 -4 5 -5 2 -1 -5 6 -11 13 -9 32 9
20 19 24 39 8 39 -3 0 -3 -4 0 -9z"/>
<path d="M4501 6246 c-9 -11 -9 -16 1 -22 7 -4 10 -4 6 1 -4 4 -3 14 3 22 6 7
9 13 6 13 -2 0 -10 -6 -16 -14z"/>
<path d="M4470 6221 c0 -6 4 -13 10 -16 6 -3 7 1 4 9 -7 18 -14 21 -14 7z"/>
<path d="M4503 6195 c0 -8 4 -12 9 -9 5 3 6 10 3 15 -9 13 -12 11 -12 -6z"/>
<path d="M2186 5694 l-79 -53 -18 -68 c-18 -73 -18 -89 1 -51 19 36 91 130 96
125 14 -14 -70 -206 -133 -306 -19 -29 -33 -55 -31 -56 2 -2 48 49 104 113
l100 117 -12 53 c-11 51 -10 54 10 62 18 7 22 3 30 -26 11 -39 16 -41 39 -16
15 16 15 23 0 82 -9 36 -19 68 -22 71 -3 3 -42 -18 -85 -47z"/>
<path d="M1997 5563 c-4 -3 -7 -22 -6 -42 l1 -36 13 35 c7 19 14 38 14 43 1 9
-13 9 -22 0z"/>
<path d="M1897 5479 c-33 -25 -33 -37 -4 -120 l22 -64 6 100 c3 55 5 101 4
103 -1 1 -14 -7 -28 -19z"/>
<path d="M5600 5497 c0 -5 16 -37 36 -72 31 -57 47 -72 157 -149 l122 -86 -85
79 c-47 44 -117 115 -157 158 -40 43 -72 74 -73 70z"/>
<path d="M1802 5398 c-18 -18 -14 -29 25 -73 20 -22 33 -32 29 -21 -3 10 -11
38 -17 62 -12 46 -18 51 -37 32z"/>
<path d="M5950 5378 c0 -3 20 -48 45 -99 25 -52 42 -83 39 -69 -4 13 -9 46
-13 73 -5 40 -12 54 -38 75 -18 13 -33 22 -33 20z"/>
<path d="M1597 5186 l-17 -26 77 0 c43 0 89 3 103 7 21 5 16 8 -30 18 -30 7
-69 16 -86 20 -26 6 -33 3 -47 -19z"/>
<path d="M6155 5140 c-21 -23 -8 -27 20 -7 11 8 14 16 8 20 -6 4 -18 -2 -28
-13z"/>
<path d="M1578 5113 c-42 -4 -51 -9 -88 -52 -22 -27 -40 -52 -40 -57 0 -4 6 0
13 9 14 18 87 48 202 82 l80 24 -60 -1 c-33 -1 -81 -3 -107 -5z"/>
<path d="M6190 5090 c-11 -7 -7 -10 18 -10 17 0 32 5 32 10 0 13 -30 13 -50 0z"/>
<path d="M6215 4983 c25 -24 205 -142 205 -135 0 24 -42 58 -123 98 -51 25
-87 42 -82 37z"/>
<path d="M6538 1686 c-60 -61 -108 -112 -108 -113 0 -1 31 17 69 40 58 35 75
53 110 111 23 38 41 70 39 71 -2 1 -51 -47 -110 -109z"/>
<path d="M6490 1578 c-25 -23 -81 -68 -125 -101 -44 -32 -82 -61 -85 -64 -5
-4 65 25 133 57 15 8 44 36 65 64 20 28 43 59 50 68 19 26 12 22 -38 -24z"/>
<path d="M6322 1398 c-45 -22 -81 -42 -80 -43 2 -2 32 4 68 12 49 11 71 22 88
44 13 16 20 29 15 28 -4 0 -45 -19 -91 -41z"/>
<path d="M1813 1159 l-21 -84 24 -24 c13 -14 25 -23 26 -20 2 2 1 51 -2 108
l-5 103 -22 -83z"/>
<path d="M2022 1185 c88 -117 228 -358 215 -371 -2 -2 -37 36 -78 86 -40 49
-74 90 -75 90 -2 0 72 -173 87 -205 6 -11 53 -46 106 -78 l96 -58 -6 38 c-3
21 -11 79 -18 130 -9 76 -16 96 -36 115 l-24 22 7 -67 7 -67 -24 8 c-21 8 -25
19 -37 98 -7 48 -17 91 -22 94 -6 4 -52 47 -103 96 -129 125 -148 139 -95 69z"/>
<path d="M6190 1220 c6 -11 15 -18 21 -14 6 4 6 11 -2 20 -17 21 -31 17 -19
-6z"/>
<path d="M6140 1181 c0 -22 4 -31 13 -28 13 4 11 36 -4 52 -5 5 -9 -4 -9 -24z"/>
<path d="M1887 1095 l5 -110 36 -32 c20 -17 37 -31 38 -30 1 1 -13 49 -31 107
-18 58 -38 121 -43 140 -7 26 -8 6 -5 -75z"/>
<path d="M5992 1093 c-34 -54 -64 -106 -67 -115 -9 -22 8 -24 25 -3 7 8 18 15
24 15 7 0 23 12 37 27 22 25 22 26 1 9 -12 -11 -24 -17 -27 -15 -2 3 13 44 35
92 21 48 37 87 35 87 -2 0 -30 -44 -63 -97z"/>
<path d="M5958 1113 c-25 -32 -80 -94 -122 -138 -42 -44 -76 -81 -76 -82 0 -1
29 16 65 39 54 35 74 55 112 117 26 42 53 86 61 99 26 41 6 23 -40 -35z"/>
<path d="M2010 977 c0 -3 5 -29 11 -56 8 -38 18 -56 41 -72 l29 -21 -36 73
c-38 75 -45 87 -45 76z"/>
</g>
</svg>
